<svg width="100%" viewBox="0 0 680 160" xmlns="http://www.w3.org/2000/svg">

  <!-- Background -->
  <rect width="680" height="160" fill="#0a0f1e" rx="12"/>

  <!-- Grid dots — left side -->
  <g fill="#1e2a4a" opacity="0.7">
    <circle cx="20" cy="20" r="1"/><circle cx="40" cy="20" r="1"/><circle cx="60" cy="20" r="1"/><circle cx="80" cy="20" r="1"/><circle cx="100" cy="20" r="1"/>
    <circle cx="20" cy="40" r="1"/><circle cx="40" cy="40" r="1"/><circle cx="60" cy="40" r="1"/><circle cx="80" cy="40" r="1"/><circle cx="100" cy="40" r="1"/>
    <circle cx="20" cy="60" r="1"/><circle cx="40" cy="60" r="1"/><circle cx="60" cy="60" r="1"/><circle cx="80" cy="60" r="1"/><circle cx="100" cy="60" r="1"/>
    <circle cx="20" cy="80" r="1"/><circle cx="40" cy="80" r="1"/><circle cx="60" cy="80" r="1"/><circle cx="80" cy="80" r="1"/><circle cx="100" cy="80" r="1"/>
    <circle cx="20" cy="100" r="1"/><circle cx="40" cy="100" r="1"/><circle cx="60" cy="100" r="1"/><circle cx="80" cy="100" r="1"/><circle cx="100" cy="100" r="1"/>
    <circle cx="20" cy="120" r="1"/><circle cx="40" cy="120" r="1"/><circle cx="60" cy="120" r="1"/><circle cx="80" cy="120" r="1"/><circle cx="100" cy="120" r="1"/>
    <circle cx="20" cy="140" r="1"/><circle cx="40" cy="140" r="1"/><circle cx="60" cy="140" r="1"/><circle cx="80" cy="140" r="1"/><circle cx="100" cy="140" r="1"/>
  </g>

  <!-- Grid dots — right side -->
  <g fill="#1e2a4a" opacity="0.7">
    <circle cx="580" cy="20" r="1"/><circle cx="600" cy="20" r="1"/><circle cx="620" cy="20" r="1"/><circle cx="640" cy="20" r="1"/><circle cx="660" cy="20" r="1"/>
    <circle cx="580" cy="40" r="1"/><circle cx="600" cy="40" r="1"/><circle cx="620" cy="40" r="1"/><circle cx="640" cy="40" r="1"/><circle cx="660" cy="40" r="1"/>
    <circle cx="580" cy="60" r="1"/><circle cx="600" cy="60" r="1"/><circle cx="620" cy="60" r="1"/><circle cx="640" cy="60" r="1"/><circle cx="660" cy="60" r="1"/>
    <circle cx="580" cy="80" r="1"/><circle cx="600" cy="80" r="1"/><circle cx="620" cy="80" r="1"/><circle cx="640" cy="80" r="1"/><circle cx="660" cy="80" r="1"/>
    <circle cx="580" cy="100" r="1"/><circle cx="600" cy="100" r="1"/><circle cx="620" cy="100" r="1"/><circle cx="640" cy="100" r="1"/><circle cx="660" cy="100" r="1"/>
    <circle cx="580" cy="120" r="1"/><circle cx="600" cy="120" r="1"/><circle cx="620" cy="120" r="1"/><circle cx="640" cy="120" r="1"/><circle cx="660" cy="120" r="1"/>
    <circle cx="580" cy="140" r="1"/><circle cx="600" cy="140" r="1"/><circle cx="620" cy="140" r="1"/><circle cx="640" cy="140" r="1"/><circle cx="660" cy="140" r="1"/>
  </g>

  <!-- Left circuit art -->
  <g stroke="#1e3a6e" stroke-width="0.8" fill="none">
    <line x1="16" y1="55" x2="110" y2="55"/>
    <line x1="16" y1="75" x2="110" y2="75"/>
    <line x1="16" y1="95" x2="110" y2="95"/>
    <line x1="30" y1="48" x2="30" y2="55"/>
    <line x1="50" y1="48" x2="50" y2="55"/>
    <line x1="70" y1="48" x2="70" y2="55"/>
    <line x1="90" y1="48" x2="90" y2="55"/>
  </g>
  <g fill="#3b82f6">
    <circle cx="30" cy="55" r="2.5"/><circle cx="70" cy="75" r="2.5"/>
    <circle cx="50" cy="95" r="2.5"/><circle cx="90" cy="55" r="2.5"/>
  </g>
  <g fill="#60a5fa" opacity="0.5">
    <circle cx="50" cy="55" r="1.5"/><circle cx="90" cy="75" r="1.5"/><circle cx="30" cy="95" r="1.5"/>
  </g>
  <line x1="16" y1="112" x2="60" y2="130" stroke="#1e3a6e" stroke-width="0.8"/>
  <line x1="60" y1="130" x2="110" y2="118" stroke="#1e3a6e" stroke-width="0.8"/>

  <!-- Right circuit art -->
  <g stroke="#1e3a6e" stroke-width="0.8" fill="none">
    <line x1="570" y1="55" x2="664" y2="55"/>
    <line x1="570" y1="75" x2="664" y2="75"/>
    <line x1="570" y1="95" x2="664" y2="95"/>
    <line x1="590" y1="48" x2="590" y2="55"/>
    <line x1="610" y1="48" x2="610" y2="55"/>
    <line x1="630" y1="48" x2="630" y2="55"/>
    <line x1="650" y1="48" x2="650" y2="55"/>
  </g>
  <g fill="#a78bfa">
    <circle cx="590" cy="75" r="2.5"/><circle cx="630" cy="55" r="2.5"/>
    <circle cx="650" cy="95" r="2.5"/><circle cx="610" cy="95" r="2.5"/>
  </g>
  <g fill="#c4b5fd" opacity="0.5">
    <circle cx="610" cy="75" r="1.5"/><circle cx="650" cy="75" r="1.5"/><circle cx="590" cy="55" r="1.5"/>
  </g>
  <line x1="570" y1="118" x2="620" y2="130" stroke="#1e3a6e" stroke-width="0.8"/>
  <line x1="620" y1="130" x2="664" y2="112" stroke="#1e3a6e" stroke-width="0.8"/>

  <!-- Accent bars -->
  <rect x="120" y="22" width="440" height="0.5" fill="#1e3a6e" opacity="0.8"/>
  <rect x="120" y="138" width="440" height="0.5" fill="#1e3a6e" opacity="0.8"/>

  <!-- Blue bracket left -->
  <g stroke="#3b82f6" stroke-width="1.2" fill="none">
    <line x1="128" y1="22" x2="118" y2="22"/>
    <line x1="118" y1="22" x2="118" y2="138"/>
    <line x1="118" y1="138" x2="128" y2="138"/>
  </g>

  <!-- Purple bracket right -->
  <g stroke="#a78bfa" stroke-width="1.2" fill="none">
    <line x1="552" y1="22" x2="562" y2="22"/>
    <line x1="562" y1="22" x2="562" y2="138"/>
    <line x1="562" y1="138" x2="552" y2="138"/>
  </g>

  <!-- Prompt hint -->
  <text x="148" y="64" font-family="'Courier New', monospace" font-size="12" fill="#3b82f6" opacity="0.7">~/abhay</text>
  <text x="148" y="80" font-family="'Courier New', monospace" font-size="11" fill="#4ade80" opacity="0.55">❯ whoami</text>

  <!-- Name -->
  <text x="340" y="98" font-family="'Courier New', monospace" font-size="36" font-weight="700"
        fill="#ffffff" text-anchor="middle" letter-spacing="6">ABHAY RAJ</text>

  <!-- Underline rule -->
  <rect x="240" y="106" width="200" height="0.8" fill="#3b82f6" opacity="0.6"/>

  <!-- Tagline -->
  <text x="340" y="124" font-family="'Courier New', monospace" font-size="11.5"
        fill="#94a3b8" text-anchor="middle" letter-spacing="3">MCA STUDENT  ·  FULL-STACK DEV  ·  MUSIC</text>

  <!-- Corner version labels -->
  <text x="20" y="14" font-family="'Courier New', monospace" font-size="8" fill="#1e3a6e" letter-spacing="1">v1.0</text>
  <text x="654" y="14" font-family="'Courier New', monospace" font-size="8" fill="#1e3a6e" text-anchor="end" letter-spacing="1">2026</text>

</svg>
